<?xml version="1.0" ?><svg style="enable-background:new 0 0 64 64;" version="1.1" viewBox="0 0 64 64" xml:space="preserve" xmlns="http://www.w3.org/2000/svg" xmlns:xlink="http://www.w3.org/1999/xlink"><style type="text/css">
	.st0{fill:#FFEEA9;}
	.st1{fill:#D32436;}
	.st2{fill:#8DD1D3;}
	.st3{fill:#330D00;}
	.st4{fill:none;stroke:#330D00;stroke-linecap:round;stroke-linejoin:round;stroke-miterlimit:10;}
</style><g id="_x34_0-Id_Card"/><g id="_x33_9-Formula"/><g id="_x33_8-Elbow"/><g id="_x33_7-Diploma"/><g id="_x33_6-Laptop"/><g id="_x33_5-Brush"/><g id="_x33_4-Baseball"/><g id="_x33_3-Student"/><g id="_x33_2-Highlighter"><g><g><rect class="st2" height="17.6" transform="matrix(0.5414 -0.8408 0.8408 0.5414 -5.1988 41.9014)" width="47.2" x="12.2" y="16.9"/></g><g><polygon class="st1" points="15.6,40.8 30.4,50.3 22.1,55.2 19.7,58.9 12.3,54.1 14.7,50.4    "/></g><g><polygon class="st0" points="12.3,54.1 19.7,58.9 17.1,62.9 8,60.8    "/></g><g><g><path class="st3" d="M56.6,9.7L41.8,0.2C41.6,0,41.2,0,41,0c-0.3,0.1-0.5,0.2-0.7,0.5L14.7,40.2c0,0,0,0,0,0l0,0      c-0.1,0.1-0.1,0.3-0.2,0.4c0,0,0,0,0,0.1L13.6,50l-2.2,3.5c0,0,0,0,0,0l-4.3,6.7c-0.2,0.3-0.2,0.7-0.1,1      c0.1,0.3,0.4,0.6,0.8,0.7l9.1,2.1c0.1,0,0.2,0,0.3,0c0.4,0,0.7-0.2,0.9-0.5l2.6-4c0,0,0,0,0,0l2.2-3.5l8.1-4.7c0,0,0,0,0,0      c0.1-0.1,0.3-0.2,0.3-0.3l0,0c0,0,0,0,0,0l25.6-39.7C57.2,10.7,57.1,10,56.6,9.7z M16.6,61.7l-6.8-1.6l2.9-4.4l5.5,3.6      L16.6,61.7z M21.5,54.2c-0.2,0.1-0.3,0.2-0.4,0.4l-1.8,2.8l-5.5-3.6l1.8-2.8c0.1-0.1,0.2-0.3,0.2-0.5l0.8-7.8l11.8,7.6      L21.5,54.2z M30.1,48.8l-12.9-8.3L41.5,2.6l12.9,8.3L30.1,48.8z"/></g><g><path class="st3" d="M40.1,8.8L22.2,36.7c-0.3,0.5-0.2,1.2,0.3,1.5c0.2,0.1,0.4,0.2,0.6,0.2c0.4,0,0.7-0.2,0.9-0.5L42,10      c0.3-0.5,0.2-1.2-0.3-1.5C41.2,8.2,40.5,8.3,40.1,8.8z"/></g></g></g></g><g id="_x33_1-Ruler"/><g id="_x33_0-Caliper"/><g id="_x32_9-Ruler_Elbow"/><g id="_x32_8-Abacus"/><g id="_x32_7-Id_Card"/><g id="_x32_6-Eraser"/><g id="_x32_5-Pencil"/><g id="_x32_4-Ink"/><g id="_x32_3-Graduation_Cap"/><g id="_x32_2-_Sling_Bag"/><g id="_x32_1-Rugby_Ball"/><g id="_x32_0-Clock"/><g id="_x31_9-Certificate"/><g id="_x31_8-Idea"/><g id="_x31_7-Bookshelf"/><g id="_x31_6-Formula"/><g id="_x31_5-Bell"/><g id="_x31_4-Magnifying_Glass"/><g id="_x31_3-Calculator"/><g id="_x31_2-Eyeglasses"/><g id="_x31_1-Bus"/><g id="_x31_0-Trophy"/><g id="_x39_-Globe"/><g id="_x38_-Basket_Ball"/><g id="_x37_-Pen"/><g id="_x36_-Board"/><g id="_x35_-Bag"/><g id="_x34_-Exam"/><g id="_x33_-Book"/><g id="_x32_-Ruler"/><g id="_x31_-Building"/></svg>